<svg t="1551365767833" class="icon" viewBox="0 0 1024 1024" version="1.1" xmlns="http://www.w3.org/2000/svg" p-id="10345" height="200" width="200"><path d="M365.191 363.288l-37.193 198.217h155.126l8.691-46.321h-89.413l28.502-151.896zM360.814 624.051c-43.748 0-79.212 35.465-79.212 79.214 0 43.748 35.465 79.213 79.212 79.213 43.749 0 79.213-35.465 79.213-79.213 0.001-43.749-35.464-79.214-79.213-79.214z m0 108.319c-16.049 0-29.105-13.057-29.105-29.105s13.057-29.106 29.105-29.106c16.05 0 29.106 13.058 29.106 29.106s-13.056 29.105-29.106 29.105zM695.264 624.051c-43.748 0-79.213 35.465-79.213 79.214 0 43.748 35.465 79.213 79.213 79.213s79.214-35.465 79.214-79.213c0-43.749-35.466-79.214-79.214-79.214z m0 108.319c-16.05 0-29.105-13.057-29.105-29.105s13.056-29.106 29.105-29.106 29.106 13.058 29.106 29.106-13.057 29.105-29.106 29.105z" p-id="10346" fill="#d81e06"></path><path d="M826.583 631.704l0.983-6.093c2.977-1.423 5.049-4.458 5.049-7.964v-15.555c0.665-0.413 1.107-1.114 1.107-1.904V580.87c0-0.79-0.442-1.493-1.107-1.907V548.75c0-4.408-0.24-10.136-0.695-16.789l0.003 0.003c0-1.44-0.298-4.895-0.542-7.576-3.446-36.343-11.518-90.061-21.434-117.815l-0.007-0.035c-0.317-0.902-0.641-1.785-0.963-2.655h-0.01v-0.005a124.726 124.726 0 0 0-1.761-4.462c-4.552-10.861-8.832-17.613-18.843-17.613H675.688l-0.898-10.01a0.99 0.99 0 0 0-0.963-0.883h-8.868c-0.486 0-0.916 0.401-0.963 0.883l-0.899 10.01h-26.29c-4.86 0-8.833 3.977-8.833 8.836v164.186H615.4l-0.921-0.822V269.041c0-5.229-5.052-9.519-11.226-9.519H213.599c-6.179 0-11.244 4.29-11.244 9.519v387.247c0 4.299 3.433 7.789 7.705 7.896H264.156c5.843-14.401 18.837-39.368 41.542-50.115h-53.239v-304.44h311.908v344.269s-106.966-9.116-111.907-9.721c7.692 14.129 12.208 39.618 12.592 56.716l0.606 0.106h6.542l2.864-6.412 115.958 10.669c-0.012-0.662-0.025-1.325-0.025-1.991 0-3.668 0.192-8.129 0.564-12.871 2.156-19.991 11.237-55.563 47.335-77.556a37.546 37.546 0 0 0 4.433-1.646c2.343-1.049 4.918-2.662 7.573-4.68v-0.001s81.828-33.132 128.974 35.776c18.124 25.275 14.217 39.032 17.063 51.547l11.15-4.355h31.877a3.765 3.765 0 0 0 3.753-3.753V631.703h-17.136z m-42.196-76.88H678.059V431.825l83.771 0.082c8.104 22.818 17.997 59.242 21.482 95.937 0.068 0.746 0.124 1.382 0.17 1.928 0.137 1.581 0.192 2.373 0.214 2.744 0.011 0.668 0.038 1.34 0.085 2.013 0.501 7.324 0.606 11.776 0.606 14.222v6.073z" p-id="10347" fill="#d81e06"></path><path d="M511.999 0.006C229.232 0.006 0.005 229.233 0.005 512s229.227 511.994 511.994 511.994S1023.993 794.767 1023.993 512 794.766 0.006 511.999 0.006z m319.608 831.602c-41.53 41.529-89.874 74.128-143.69 96.891-55.686 23.553-114.873 35.495-175.918 35.495s-120.233-11.942-175.918-35.495c-53.816-22.763-102.16-55.361-143.69-96.891-41.53-41.53-74.128-89.874-96.891-143.69C71.948 632.232 60.005 573.045 60.005 512S71.948 391.768 95.5 336.082c22.762-53.816 55.361-102.16 96.891-143.69s89.874-74.128 143.69-96.891c55.685-23.553 114.873-35.495 175.918-35.495s120.232 11.942 175.918 35.495c53.816 22.762 102.16 55.361 143.69 96.891 41.529 41.53 74.128 89.874 96.891 143.69 23.553 55.686 35.495 114.873 35.495 175.918s-11.942 120.232-35.495 175.918c-22.763 53.816-55.361 102.16-96.891 143.69z" p-id="10348" fill="#d81e06"></path></svg>