<svg t="1551365609923" class="icon" viewBox="0 0 1024 1024" version="1.1" xmlns="http://www.w3.org/2000/svg" p-id="7352" height="200" width="200"><path d="M721.454545 581.818182a23.272727 23.272727 0 0 1-23.272727 23.272727h23.272727v-23.272727z m-372.363636 0v23.272727h23.272727a23.272727 23.272727 0 0 1-23.272727-23.272727z m93.090909-93.090909v23.272727h23.272727a23.272727 23.272727 0 0 1-23.272727-23.272727z m0-93.090909a23.272727 23.272727 0 0 1 23.272727-23.272728h-23.272727v23.272728z m279.272727 0v-23.272728h-23.272727a23.272727 23.272727 0 0 1 23.272727 23.272728z m-418.90909-93.090909v-23.272728h-23.272728a23.272727 23.272727 0 0 1 23.272728 23.272728zM232.727273 0h558.545454c128.535273 0 232.727273 104.192 232.727273 232.727273v558.545454c0 128.535273-104.192 232.727273-232.727273 232.727273H232.727273C104.192 1024 0 919.808 0 791.272727V232.727273C0 104.192 104.192 0 232.727273 0z m209.454545 512v46.545455h204.637091a11.636364 11.636364 0 0 0 8.215273-19.87491l-76.613818-76.613818a11.636364 11.636364 0 0 0-19.874909 8.215273V512h-116.363637z m-139.636363-279.272727v372.363636a46.545455 46.545455 0 0 0 46.545454 46.545455V279.272727a46.545455 46.545455 0 0 0-46.545454-46.545454z m418.90909 93.090909v279.272727h46.545455V372.363636a46.545455 46.545455 0 0 0-46.545455-46.545454zM349.090909 605.090909v46.545455h372.363636a46.545455 46.545455 0 0 0 46.545455-46.545455H349.090909z m93.090909-279.272727a46.545455 46.545455 0 0 0-46.545454 46.545454h325.818181v-46.545454H442.181818z m-23.272727 465.454545a46.545455 46.545455 0 1 0 0-93.090909 46.545455 46.545455 0 0 0 0 93.090909z m232.727273 0a46.545455 46.545455 0 1 0 0-93.090909 46.545455 46.545455 0 0 0 0 93.090909zM395.636364 372.363636v139.636364a46.545455 46.545455 0 0 0 46.545454 46.545455v-186.181819h-46.545454z m-116.363637-139.636363a23.272727 23.272727 0 0 0 0 46.545454h23.272728v-46.545454h-23.272728z" p-id="7353" fill="#2aa515"></path></svg>