<svg t="1536318990244" class="icon" viewBox="0 0 1024 1024" version="1.1" xmlns="http://www.w3.org/2000/svg" p-id="2659" height="200" width="200"><path d="M830.147 129.582h-95.444V65.954h-85.694C621.453 28.074 570.73 2.323 512 2.323c-58.729 0-109.452 25.75-137.008 63.63h-85.697v63.63h-95.446c-70.28 0-127.256 56.977-127.256 127.264V893.14c0 70.286 56.976 127.256 127.256 127.256h636.298c70.284 0 127.258-56.97 127.258-127.256V256.847c0.002-70.287-56.973-127.265-127.257-127.265z m-477.22 0h70.698c0-35.139 39.567-63.628 88.374-63.628 48.808 0 88.374 28.488 88.374 63.628h70.7v127.265H352.927V129.582z m540.85 763.559c0 35.14-28.488 63.63-63.63 63.63H193.85c-35.14 0-63.626-28.49-63.626-63.63V256.847c0-35.14 28.486-63.631 63.626-63.631h95.446v127.258h445.408V193.216h95.444c35.142 0 63.63 28.49 63.63 63.63v636.295zM734.702 765.879H289.295c-17.57 0-31.813 14.245-31.813 31.818 0 17.568 14.242 31.813 31.813 31.813h445.407c17.573 0 31.815-14.245 31.815-31.813 0-17.573-14.242-31.818-31.815-31.818z m0-318.148H289.295c-17.57 0-31.813 14.244-31.813 31.82 0 17.566 14.242 31.813 31.813 31.813h445.407c17.573 0 31.815-14.247 31.815-31.813 0-17.576-14.242-31.82-31.815-31.82z m0 159.074H289.295c-17.57 0-31.813 14.247-31.813 31.818 0 17.568 14.242 31.813 31.813 31.813h445.407c17.573 0 31.815-14.245 31.815-31.813 0-17.571-14.242-31.818-31.815-31.818z" p-id="2660" fill="#1296db"></path></svg>