<?xml version="1.0" encoding="utf-8"?>
<!-- Generator: Adobe Illustrator 15.0.0, SVG Export Plug-In . SVG Version: 6.00 Build 0)  -->
<!DOCTYPE svg PUBLIC "-//W3C//DTD SVG 1.1//EN" "http://www.w3.org/Graphics/SVG/1.1/DTD/svg11.dtd">
<svg version="1.1" id="Layer_2" xmlns="http://www.w3.org/2000/svg" xmlns:xlink="http://www.w3.org/1999/xlink" x="0px" y="0px"
	 width="296.667px" height="137.333px" viewBox="0 0 296.667 137.333" enable-background="new 0 0 296.667 137.333"
	 xml:space="preserve">
<ellipse fill="#E9741E" cx="22.771" cy="18.992" rx="8.135" ry="7.303"/>
<path fill="#E9741E" d="M10.932,37.296l4.992-7.765c0,0,7.025,5.454,9.152,7.303s5.917,4.993,5.824,10.077
	s-1.572,9.522-2.773,12.572s-9.06,19.136-9.06,19.136L7.049,71.13c0,0,11.558-10.691,15.993-17.194
	c1.387-2.034,3.05-7.395-1.664-10.168S10.932,37.296,10.932,37.296z"/>
<g>
	<path fill="#E9741E" d="M26.37,32.673c0,0,6.563-4.252,13.035-22.002c1.849,0.647,11.186,3.143,11.186,3.143l-3.051,5.639
		c0,0,13.959-4.252,25.977-4.252c0,0,6.564-0.276,11.648,1.387s10.262,5.084,11.556,10.631s2.681,24.036,0.092,40.768
		c0,0-0.555,3.883-4.16,7.303s-7.95,5.084-15.623,5.084s-11.74-1.479-11.74-1.479l1.572-6.472c0,0,4.714,1.757,8.412,1.757
		s6.841-1.571,8.505-3.513c0,0,1.479-2.219,1.572-4.068c0.092-1.849,0.185-37.347-0.185-38.549s-0.832-5.731-6.563-6.841
		s-10.261-0.37-11.648-0.092s-10.077,2.403-14.421,4.16c1.664,0.555,4.9,1.387,4.9,1.387s-1.479,3.05-4.16,6.009
		c3.698-0.092,28.288,0,28.288,0v5.547H65.751v7.396h15.623v5.546H65.751v11.74c0,0,2.588,0,6.378-2.958
		c-0.277-2.034-0.185-2.312-1.109-5.27c2.404-0.555,7.211-2.218,7.211-2.218L84.24,67.34l-8.967,3.513l-1.664-6.009
		c0,0-2.681,3.051-9.244,4.992c-9.139,2.703-14.976,2.589-16.547,2.496c0,0-4.437,0.184-7.118-1.018s-6.563-3.975-6.563-11.925
		c0-2.681,0.647-4.899,0.647-4.899l11.278,0.092c0,0-0.555,3.976-0.555,4.992s-0.833,5.361,7.303,5.269
		c0-5.824-0.092-13.774-0.092-13.774l-16.085-0.093v-5.546h15.993v-7.026h-4.068c0,0-4.438,4.161-6.933,6.656l-4.622-4.068
		c0,0,5.334-5.546,8.967-13.589c-2.126,0.832-5.824,2.496-5.824,2.496s-2.589,3.328-5.824,6.749
		C32.009,35.354,26.37,32.673,26.37,32.673z"/>
	<path fill="#E9741E" d="M110.956,40.624V17.976h12.665v2.866c0,0,18.119-2.496,20.06-2.496v-6.471h14.329v4.899
		c0,0,9.152-0.832,15.161-0.832s13.033,1.016,15.715,1.941s5.917,3.236,5.917,8.043s-3.606,9.799-10.816,14.606
		c-2.219-2.219-3.882-3.79-3.882-3.79l0.092,2.126h-22.001v7.488h25.236v5.917h-25.236v17.657h34.296v7.303h-81.627v-7.303h32.54
		V52.457H120.94v-6.102h22.556V38.96h-19.69v1.664H110.956z M123.806,27.867l-0.092,5.27h51.861c0,0,5.639-3.421,5.639-6.749
		s-4.345-4.252-7.303-4.437s-11.278-0.277-18.119,0.555C148.951,23.337,133.235,25.186,123.806,27.867z"/>
	<ellipse fill="#E9741E" cx="174.286" cy="61.239" rx="8.042" ry="7.21"/>
	<path fill="#E9741E" d="M220.594,55.046v22.094h-14.236V15.573h14.144v5.362c0,0,13.774-5.269,23.111-7.21
		s14.698-1.941,16.917-1.941s11.371,1.017,16.548,2.958s8.874,5.824,10.354,9.984s1.571,15.53,1.571,20.8s-0.369,21.446-0.924,24.59
		s-1.851,6.748-4.623,8.782s-6.748,1.571-10.354,0.832s-7.857-2.311-11.463-4.252c0-2.312,0-6.102,0-6.102s3.512,2.496,7.025,2.496
		s6.287-2.126,6.287-6.841s0.461-24.96,0.092-33.28c-2.311,3.698-7.118,10.261-9.244,12.665c2.865,2.034,6.287,5.177,8.32,7.581
		c-2.682,2.403-9.892,8.32-9.892,8.32s-4.253-6.471-5.27-7.673c-1.109,1.294-7.95,8.874-18.674,15.161
		c-1.849-2.681-4.438-6.009-4.438-6.009s8.043-2.773,17.842-15.808c-2.126-2.219-5.269-6.287-8.042-8.135
		c-1.109,1.572-4.346,4.992-4.346,4.992s2.959,2.218,5.085,6.101c-1.849,1.849-7.58,7.766-7.58,7.766l-4.623-7.118
		c0,0-5.084,5.361-9.799,8.782C222.073,56.156,220.594,55.046,220.594,55.046z M229.931,43.676
		c-3.328-4.992-8.043-8.135-8.043-8.135s2.496-2.773,3.791-4.899c2.682,1.849,5.546,3.883,8.597,6.101
		c2.681-4.53,6.193-12.479,6.193-12.479s8.69,4.345,10.354,5.177c-0.832,2.681-1.572,3.605-1.572,3.605s5.454,3.605,8.782,5.732
		c3.79-7.21,5.454-15.623,5.454-15.623l11.371,6.933c0,0,0-4.252-0.185-6.009c-0.185-6.194-6.934-6.933-10.539-6.841
		s-11.556,1.571-20.522,3.513s-23.111,8.228-23.111,8.228V52.55C225.492,49.5,227.435,47.096,229.931,43.676z"/>
</g>
<g>
	<path fill="#E9741E" d="M13.153,98.138c0,0,1.377-5.024,6.768-4.822s9.361,0.486,12.482,0.486s10.212-0.688,10.982-0.973
		c-0.365,1.499-2.066,4.377-4.579,4.377s-5.714,0-5.714,0s-1.337-0.04-1.337,1.621s0,19.816,0,19.816s0.365,2.716,2.999,2.067
		c-0.851,2.31-3.04,3.647-5.593,3.647s-5.065-1.622-5.065-3.851s0-20.87,0-22.005s-0.162-1.419-2.188-1.5
		c-1.215-0.049-3.558-0.163-5.593,0.081C15.001,97.24,13.964,97.725,13.153,98.138z"/>
	<path fill="#E9741E" d="M41.806,103.366c0.24-0.838,0.689-2.27,2.472-3.283c1.976-1.124,4.904-1.175,5.958-1.175
		s4.377,0.203,5.39,0.486s6.808,1.176,6.808,7.538s0,11.995,0,11.995s0.243,2.513,2.796,1.702c-0.365,2.472-2.796,3.729-4.539,3.729
		s-4.579-1.055-4.579-3.202c0,0-1.135,3.606-7.214,3.566s-9.361-3.688-9.361-9.118s3.931-9.199,9.726-9.199
		c1.945,0,5.391,0.771,6.849,3.08c0.013-2.836-0.511-6.695-4.871-7.101C49.002,102.242,44.523,102.338,41.806,103.366z
		 M51.451,110.012c-2.552,0-4.62,2.432-4.62,5.431s2.068,5.431,4.62,5.431s4.62-2.432,4.62-5.431S54.003,110.012,51.451,110.012z"/>
	<path fill="#E9741E" d="M129.806,103.366c0.24-0.838,0.689-2.27,2.472-3.283c1.976-1.124,4.904-1.175,5.958-1.175
		s4.377,0.203,5.39,0.486s6.808,1.176,6.808,7.538s0,11.995,0,11.995s0.243,2.513,2.796,1.702c-0.364,2.472-2.796,3.729-4.539,3.729
		s-4.579-1.055-4.579-3.202c0,0-1.135,3.606-7.214,3.566s-9.361-3.688-9.361-9.118s3.931-9.199,9.726-9.199
		c1.945,0,5.391,0.771,6.849,3.08c0.013-2.836-0.511-6.695-4.871-7.101C137.002,102.242,132.523,102.338,129.806,103.366z
		 M139.451,110.012c-2.552,0-4.62,2.432-4.62,5.431s2.068,5.431,4.62,5.431s4.62-2.432,4.62-5.431S142.003,110.012,139.451,110.012z
		"/>
	<path fill="#E9741E" d="M93.113,111.876c0,7.229-5.661,13.09-12.644,13.09s-12.644-5.86-12.644-13.09s5.661-13.09,12.644-13.09
		S93.113,104.646,93.113,111.876z M80.469,102.758c-2.753,0-4.984,4.082-4.984,9.118s2.231,9.118,4.984,9.118
		s4.984-4.082,4.984-9.118S83.222,102.758,80.469,102.758z"/>
	<path fill="#E9741E" d="M180.862,111.876c0,7.229-5.66,13.09-12.644,13.09s-12.644-5.86-12.644-13.09s5.66-13.09,12.644-13.09
		S180.862,104.646,180.862,111.876z M168.219,102.758c-2.753,0-4.984,4.082-4.984,9.118s2.231,9.118,4.984,9.118
		s4.984-4.082,4.984-9.118S170.972,102.758,168.219,102.758z"/>
	<path fill="#E9741E" d="M245.862,111.876c0,7.229-5.66,13.09-12.644,13.09s-12.644-5.86-12.644-13.09s5.66-13.09,12.644-13.09
		S245.862,104.646,245.862,111.876z M233.219,102.758c-2.753,0-4.984,4.082-4.984,9.118s2.231,9.118,4.984,9.118
		s4.984-4.082,4.984-9.118S235.972,102.758,233.219,102.758z"/>
	<path fill="#E9741E" d="M95.203,93.894c0,0,0.505-3.738,4.799-3.738s5.153,2.729,5.153,3.436s0,8.386,0,8.386
		s1.819-2.728,7.376-2.728s10.66,3.941,10.66,11.367c0,0,1.162,13.893-10.963,13.893c-3.94,0-6.214-1.313-7.376-3.233
		c-0.758,1.971-2.526,3.082-4.648,3.082s-4.648-1.313-4.648-3.688c0.91,0.101,2.627,0.05,2.627-2.173s0-22.835,0-22.835
		S97.981,93.894,95.203,93.894z M105.357,106.726c-0.758,2.323-0.354,8.689,0,9.902s1.667,4.243,5.052,4.243
		s4.547-3.334,4.799-4.445s0.758-4.042-0.151-9.094s-4.749-4.647-4.749-4.647C107.529,102.735,106.115,104.402,105.357,106.726z"/>
	<ellipse fill="#E9741E" cx="187.651" cy="121.124" rx="3.536" ry="3.485"/>
	<path fill="#E9741E" d="M217.004,120.771c0,0-1.263-1.363-2.425-1.313s-1.768,0.454-2.425,0.707s-2.072,0.758-3.335,0.758
		s-3.587-0.505-5.305-3.133c-1.734-2.653-1.719-7.83-1.162-10.003s1.869-3.84,3.385-4.799s4.396-0.605,5.406,0.202
		s1.465,2.323,3.334,2.323s2.93-2.223,2.627-3.738c0,0-3.03-2.473-9.295-2.526c-5.86-0.05-9.194,3.133-10.256,4.396
		s-3.082,4.294-3.082,8.336s2.021,8.134,4.446,10.003c2.409,1.857,5.961,2.779,8.588,2.779S214.175,123.853,217.004,120.771z"/>
	<path fill="#E9741E" d="M248.227,103.089c0,0,0.556-3.789,4.9-3.789c3.587,0,4.547,2.678,4.547,2.678s2.224-2.931,6.871-2.931
		s6.771,2.223,7.629,3.385c1.515-1.465,3.082-3.334,7.325-3.334s7.83,1.466,8.234,5.709s0.253,14.65,0.253,14.65
		s0.353,2.021,2.576,1.162c0.202,2.273-2.173,3.738-4.547,3.738s-4.749-1.413-4.749-4.395s0-14.196,0-14.196
		s0.052-3.284-3.839-3.284s-4.295,3.587-4.295,4.698s0,17.025,0,17.025h-6.921v-18.39c0,0-0.051-3.385-3.638-3.385
		s-4.547,2.981-4.547,4.446s0,17.177,0,17.177h-6.87v-18.844C251.157,105.211,251.309,103.14,248.227,103.089z"/>
</g>
</svg>
