<svg t="1536032742820" class="icon" viewBox="0 0 1024 1024" version="1.1" xmlns="http://www.w3.org/2000/svg" p-id="2641" height="200" width="200"><path d="M587.093 612.762c0-42.53-33.792-76.869-75.093-76.869s-75.093 34.338-75.093 76.869c0 28.808 15.018 53.248 37.546 66.355v87.586c0 21.3 16.93 38.844 37.547 38.844 20.685 0 37.547-17.545 37.547-38.844v-87.586c22.528-13.107 37.546-37.547 37.546-66.355z" p-id="2642" fill="#bfbfbf"></path><path d="M774.827 342.562h-32.564v-72.021C742.263 106.223 651.947 0 512 0S281.737 106.223 281.737 270.54v72.022h-32.564c-61.918 0-112.64 52.02-112.64 115.78v385.024c0 63.83 50.722 115.78 112.64 115.78h525.654c61.918 0 112.64-51.95 112.64-115.78V458.342c0-63.76-50.722-115.78-112.64-115.78z m-428.169-53.248h0.137v-18.773c0-32.359 4.437-79.6 25.463-120.764C399.701 96.324 448.034 68.062 512 68.062c104.994 0 165.205 73.796 165.205 202.479v18.773h0.137v53.248H346.658v-53.248z m472.337 554.052a48.47 48.47 0 0 1-13.653 33.997 42.394 42.394 0 0 1-30.515 13.244H249.173a42.394 42.394 0 0 1-30.447-13.244 48.47 48.47 0 0 1-13.653-33.997V458.342a48.47 48.47 0 0 1 13.653-33.996 42.394 42.394 0 0 1 30.447-13.312h525.654c11.332 0 22.118 4.778 30.447 13.312 8.874 9.01 13.653 21.162 13.653 33.996v385.024z" p-id="2643" fill="#bfbfbf"></path></svg>