<svg t="1536039599168" class="icon" viewBox="0 0 1024 1024" version="1.1" xmlns="http://www.w3.org/2000/svg" p-id="3633" height="200" width="200"><path d="M1002.8889125925925 350.4416237037037c12.427567407407405-12.427567407407405 6.213783703703703-37.28270222222223-6.213783703703703-49.71026962962962-18.641351111111113-12.427567407407405-37.28270222222223-6.213783703703703-49.71026962962962 6.213783703703703 0 0-198.8410785185185 223.69621333333333-434.96485925925924 223.69621333333333-229.90999703703704 0-434.96485925925924-223.69621333333333-434.96485925925924-223.69621333333333-12.427567407407405-12.427567407407405-37.28270222222223-12.427567407407405-49.71026962962962-6.213783703703703-12.427567407407405 12.427567407407405-18.641351111111113 37.28270222222223-6.213783703703703 49.71026962962962 6.213783703703703 6.213783703703703 49.71026962962962 49.71026962962962 118.06189037037036 99.42053925925924l-93.20675555555555 86.99297185185185c-12.427567407407405 12.427567407407405-12.427567407407405 37.28270222222223 0 49.71026962962962 6.213783703703703 6.213783703703703 12.427567407407405 12.427567407407405 18.641351111111113 12.427567407407405 6.213783703703703 0 18.641351111111113-6.213783703703703 24.85513481481481-12.427567407407405l99.42053925925924-93.20675555555555c43.496485925925924 31.06891851851852 99.42053925925924 55.92405333333333 161.55837629629627 80.77918814814814l-37.28270222222223 118.06189037037036c-6.213783703703703 18.641351111111113 6.213783703703703 37.28270222222223 24.85513481481481 43.496485925925924h12.427567407407405c18.641351111111113 0 31.06891851851852-12.427567407407405 31.06891851851852-24.85513481481481l37.28270222222223-118.06189037037036c31.06891851851852 6.213783703703703 55.92405333333333 6.213783703703703 86.99297185185185 6.213783703703703s62.13783703703704-6.213783703703703 86.99297185185185-6.213783703703703l37.28270222222223 118.06189037037036c6.213783703703703 12.427567407407405 18.641351111111113 24.85513481481481 31.06891851851852 24.85513481481481h6.213783703703703c18.641351111111113-6.213783703703703 31.06891851851852-24.85513481481481 24.85513481481481-43.496485925925924l-37.28270222222223-118.06189037037036c62.13783703703704-18.641351111111113 118.06189037037036-49.71026962962962 161.55837629629627-80.77918814814814l93.20675555555555 93.20675555555555c6.213783703703703 6.213783703703703 18.641351111111113 12.427567407407405 24.85513481481481 12.427567407407405 6.213783703703703 0 18.641351111111113-6.213783703703703 24.85513481481481-12.427567407407405 12.427567407407405-12.427567407407405 12.427567407407405-31.06891851851852 0-49.71026962962962L884.8270222222222 449.862162962963c74.56540444444445-55.92405333333333 118.06189037037036-99.42053925925924 118.06189037037036-99.42053925925924z" p-id="3634"></path></svg>