<svg t="1536039420868" class="icon" viewBox="0 0 1024 1024" version="1.1" xmlns="http://www.w3.org/2000/svg" p-id="2740" height="200" width="200"><path d="M776.815723 346.608433H231.358979c-74.654124 0-135.375105 60.376953-135.375105 134.515034V860.070553c0 74.138082 60.720981 134.515034 135.375105 134.515034h545.456744c74.654124 0 135.375105-60.376953 135.375105-134.515034V481.123467c0-74.138082-60.720981-134.515034-135.375105-134.515034z m74.138082 513.634134c0 40.767344-33.370737 73.794053-74.310096 73.794053h-545.28473c-40.939358 0-74.310096-33.026709-74.310096-73.794053V481.123467c0-40.767344 33.370737-73.794053 74.310096-73.794053h545.456744c40.939358 0 74.310096 33.026709 74.310096 73.794053v379.1191h-0.172014zM266.277843 306.873173c0-120.92592 99.080128-219.317991 220.694104-219.317991H521.202755c121.613976 0 220.694104 98.392071 220.694104 219.317991v10.664875h61.065009v-10.664875c0-154.468671-126.430371-280.038972-281.759113-280.038972h-34.230808c-155.328742 0-281.759113 125.570301-281.759113 280.038972v10.664875h61.065009v-10.664875z m209.857215 390.644045l-91.683521-91.167478-43.175542 43.003527 134.859063 133.998992 219.317991-217.769864-43.175542-43.003527-176.142449 174.93835z" p-id="2741" fill="#bfbfbf"></path></svg>