<svg t="1536039543450" class="icon" viewBox="0 0 1024 1024" version="1.1" xmlns="http://www.w3.org/2000/svg" p-id="3425" height="200" width="200"><path d="M510.976694 217.370703c-301.727972 0-447.064059 289.838178-447.064059 305.885666 0 16.056698 141.453662 305.885666 447.064059 305.885666 305.606303 0 447.064059-289.828968 447.064059-305.885666C958.040752 507.20888 812.70262 217.370703 510.976694 217.370703zM510.976694 711.493543c-103.960747 0-188.237175-84.276429-188.237175-188.242292 0-103.9587 84.276429-188.233082 188.237175-188.233082 103.956653 0 188.237175 84.274382 188.237175 188.233082C699.213869 627.217115 614.933347 711.493543 510.976694 711.493543z" p-id="3426"></path><path d="M510.97874 429.137781c-51.983955 0-94.120634 42.139749-94.120634 94.116541 0 51.986001 42.136679 94.120634 94.120634 94.120634 51.976792 0 94.116541-42.134633 94.116541-94.120634C605.095281 471.276507 562.955532 429.137781 510.97874 429.137781z" p-id="3427"></path></svg>